<?xml version="1.0" standalone="no"?>
<!DOCTYPE svg PUBLIC "-//W3C//DTD SVG 20010904//EN"
 "http://www.w3.org/TR/2001/REC-SVG-20010904/DTD/svg10.dtd">
<svg version="1.0" xmlns="http://www.w3.org/2000/svg"
 width="448.000000pt" height="448.000000pt" viewBox="0 0 448.000000 448.000000"
 preserveAspectRatio="xMidYMid meet">
<metadata>
Created by potrace 1.11, written by Peter Selinger 2001-2013
</metadata>
<g transform="translate(0.000000,448.000000) scale(0.100000,-0.100000)"
fill="#000000" stroke="none">
<path d="M21 4214 l-22 -25 3 -434 c4 -514 -6 -476 123 -479 69 -2 80 -5 100
-27 l21 -26 0 -982 -1 -983 -28 -24 c-24 -21 -38 -24 -102 -24 -122 0 -114 32
-115 -484 0 -422 0 -434 20 -459 l21 -26 782 0 782 0 25 24 25 24 -2 208 c-1
114 -4 311 -6 436 -4 274 -1 265 -117 271 -66 3 -76 6 -97 30 -13 15 -23 37
-24 49 0 12 -2 146 -4 297 -3 303 -1 320 53 320 25 0 43 -26 247 -372 121
-205 225 -382 231 -393 50 -94 250 -425 269 -444 41 -42 71 -21 137 97 17 31
172 296 244 419 17 27 122 209 164 282 145 251 226 384 242 396 26 17 66 1 74
-29 3 -12 3 -151 1 -309 l-4 -288 -26 -27 c-23 -22 -37 -27 -86 -28 -80 -2
-108 -10 -121 -34 -7 -13 -13 -175 -16 -451 l-6 -431 22 -23 22 -24 782 0
c429 0 789 3 799 5 36 11 44 51 41 214 -1 85 -2 277 -3 426 -1 329 4 315 -115
320 -69 2 -80 5 -102 29 l-24 26 0 983 0 983 25 27 c13 14 32 26 42 27 10 0
44 2 76 2 96 3 97 4 98 276 0 124 1 314 3 421 4 222 -1 245 -57 255 -17 3
-301 4 -629 3 l-597 -3 -31 -30 c-18 -16 -36 -39 -41 -50 -5 -11 -41 -72 -79
-135 -39 -63 -88 -144 -108 -179 -20 -35 -42 -71 -47 -80 -6 -9 -77 -128 -159
-266 -82 -137 -169 -284 -194 -325 -25 -41 -55 -93 -67 -115 -60 -105 -149
-253 -171 -282 -30 -40 -71 -44 -101 -10 -11 12 -53 78 -94 147 -41 69 -78
133 -84 142 -5 9 -17 29 -26 45 -23 41 -208 352 -234 393 -12 19 -73 121 -135
225 -62 105 -123 206 -135 225 -12 19 -39 64 -60 100 -21 36 -46 77 -57 92
-10 15 -18 30 -18 33 0 9 -29 37 -59 57 -24 16 -75 17 -637 18 l-611 0 -22
-26z"/>
</g>
</svg>
